<mxfile host="app.diagrams.net" agent="Mozilla/5.0 (Macintosh; Intel Mac OS X 10_15_7) AppleWebKit/537.36 (KHTML, like Gecko) Chrome/135.0.0.0 Safari/537.36" version="26.2.14">
  <diagram name="Page-1" id="5bHaEas3I0YWfYlRU1f9">
    <mxGraphModel dx="2516" dy="1638" grid="0" gridSize="10" guides="1" tooltips="1" connect="1" arrows="1" fold="1" page="1" pageScale="1" pageWidth="1654" pageHeight="1169" math="0" shadow="0">
      <root>
        <mxCell id="0" />
        <mxCell id="1" parent="0" />
        <mxCell id="d6p9PFXJ9PnHoYDoL1wJ-2" value="" style="rounded=1;whiteSpace=wrap;html=1;arcSize=24;absoluteArcSize=1;imageWidth=64;imageHeight=64;strokeWidth=1.5;fontFamily=Arial;" vertex="1" parent="1">
          <mxGeometry x="100.99999999999994" y="220" width="1495.66" height="501" as="geometry" />
        </mxCell>
        <mxCell id="d6p9PFXJ9PnHoYDoL1wJ-3" value="&lt;font face=&quot;arial&quot; style=&quot;font-size: 21px;&quot;&gt;&lt;b style=&quot;&quot;&gt;SAP Business Data Cloud&amp;nbsp;&lt;/b&gt;&lt;/font&gt;" style="text;html=1;align=center;verticalAlign=middle;resizable=0;points=[[0,0.5,0,0,0],[0.5,0,0,0,0],[0.5,1,0,0,0],[1,0.5,0,0,0]];autosize=1;strokeColor=none;fillColor=none;fontSize=12;fontColor=#1D2D3E;fontFamily=Helvetica;" vertex="1" parent="1">
          <mxGeometry x="130.66000000000003" y="241" width="290" height="40" as="geometry" />
        </mxCell>
        <mxCell id="d6p9PFXJ9PnHoYDoL1wJ-4" value="Data Product Generator&lt;div&gt;(SAP GUI in SAP 7.50/ Fiori UI in SAP BW/4HANA)&lt;/div&gt;" style="rounded=1;whiteSpace=wrap;html=1;strokeColor=#0070F2;fillColor=#EBF8FF;arcSize=24;absoluteArcSize=1;imageWidth=64;imageHeight=64;strokeWidth=1.5;dashed=1;dashPattern=1 2;" vertex="1" parent="1">
          <mxGeometry x="130.99999999999994" y="416" width="313.66" height="59" as="geometry" />
        </mxCell>
        <mxCell id="d6p9PFXJ9PnHoYDoL1wJ-5" value="" style="rounded=1;whiteSpace=wrap;html=1;strokeColor=#0070F2;fillColor=#ffffff;arcSize=24;absoluteArcSize=1;imageWidth=64;imageHeight=64;strokeWidth=1.5;" vertex="1" parent="1">
          <mxGeometry x="128.65999999999997" y="485" width="313" height="209" as="geometry" />
        </mxCell>
        <mxCell id="d6p9PFXJ9PnHoYDoL1wJ-6" value="InfoProviders" style="rounded=1;whiteSpace=wrap;html=1;strokeColor=#0070F2;fillColor=#EBF8FF;arcSize=24;absoluteArcSize=1;imageWidth=64;imageHeight=64;strokeWidth=1.5;dashed=1;dashPattern=1 2;" vertex="1" parent="1">
          <mxGeometry x="141.65999999999997" y="630" width="277" height="42" as="geometry" />
        </mxCell>
        <mxCell id="d6p9PFXJ9PnHoYDoL1wJ-7" value="Provisioning Layer" style="rounded=1;whiteSpace=wrap;html=1;strokeColor=#0070F2;fillColor=#EBF8FF;arcSize=24;absoluteArcSize=1;imageWidth=64;imageHeight=64;strokeWidth=1.5;dashed=1;dashPattern=1 2;" vertex="1" parent="1">
          <mxGeometry x="140.99999999999994" y="573" width="275.66" height="44" as="geometry" />
        </mxCell>
        <mxCell id="d6p9PFXJ9PnHoYDoL1wJ-8" value="&lt;font face=&quot;arial&quot; style=&quot;font-size: 16px;&quot;&gt;&lt;b style=&quot;font-size: 16px;&quot;&gt;SAP BW Cloud, PCE&lt;/b&gt;&lt;/font&gt;" style="text;html=1;align=center;verticalAlign=middle;resizable=0;points=[[0,0.5,0,0,0],[0.5,0,0,0,0],[0.5,1,0,0,0],[1,0.5,0,0,0]];autosize=1;strokeColor=none;fillColor=none;fontSize=12;fontColor=#1D2D3E;fontFamily=Helvetica;" vertex="1" parent="1">
          <mxGeometry x="185.65999999999997" y="501" width="180" height="30" as="geometry" />
        </mxCell>
        <mxCell id="d6p9PFXJ9PnHoYDoL1wJ-9" value="&lt;font face=&quot;arial&quot; style=&quot;font-size: 16px;&quot;&gt;&lt;span style=&quot;font-size: 16px;&quot;&gt;Data Product Generator for SAP BW&lt;/span&gt;&lt;/font&gt;" style="text;html=1;align=center;verticalAlign=middle;resizable=0;points=[[0,0.5,0,0,0],[0.5,0,0,0,0],[0.5,1,0,0,0],[1,0.5,0,0,0]];autosize=1;strokeColor=none;fillColor=none;fontSize=12;fontColor=#1D2D3E;fontFamily=Helvetica;" vertex="1" parent="1">
          <mxGeometry x="458" y="592" width="280" height="30" as="geometry" />
        </mxCell>
        <mxCell id="d6p9PFXJ9PnHoYDoL1wJ-10" value="&lt;font face=&quot;arial&quot; style=&quot;font-size: 16px;&quot;&gt;&lt;span style=&quot;font-size: 16px;&quot;&gt;Expose InfoProvider Data&lt;/span&gt;&lt;/font&gt;" style="text;html=1;align=center;verticalAlign=middle;resizable=0;points=[[0,0.5,0,0,0],[0.5,0,0,0,0],[0.5,1,0,0,0],[1,0.5,0,0,0]];autosize=1;strokeColor=none;fillColor=none;fontSize=12;fontColor=#1D2D3E;fontFamily=Helvetica;" vertex="1" parent="1">
          <mxGeometry x="494.5" y="625.5" width="200" height="31" as="geometry" />
        </mxCell>
        <mxCell id="d6p9PFXJ9PnHoYDoL1wJ-11" value="" style="rounded=1;whiteSpace=wrap;html=1;strokeColor=#0070F2;fillColor=#ffffff;arcSize=24;absoluteArcSize=1;imageWidth=64;imageHeight=64;strokeWidth=1.5;" vertex="1" parent="1">
          <mxGeometry x="750.41" y="270" width="513.5" height="424" as="geometry" />
        </mxCell>
        <mxCell id="d6p9PFXJ9PnHoYDoL1wJ-12" value="&lt;font face=&quot;arial&quot; style=&quot;font-size: 16px;&quot;&gt;&lt;b style=&quot;font-size: 16px;&quot;&gt;SAP Datasphere&lt;/b&gt;&lt;/font&gt;" style="text;html=1;align=center;verticalAlign=middle;resizable=0;points=[[0,0.5,0,0,0],[0.5,0,0,0,0],[0.5,1,0,0,0],[1,0.5,0,0,0]];autosize=1;strokeColor=none;fillColor=none;fontSize=12;fontColor=#1D2D3E;fontFamily=Helvetica;" vertex="1" parent="1">
          <mxGeometry x="756.66" y="277" width="150" height="30" as="geometry" />
        </mxCell>
        <mxCell id="d6p9PFXJ9PnHoYDoL1wJ-13" value="" style="rounded=1;whiteSpace=wrap;html=1;strokeColor=#0070F2;fillColor=#EBF8FF;arcSize=24;absoluteArcSize=1;imageWidth=64;imageHeight=64;strokeWidth=1.5;dashed=1;dashPattern=1 2;" vertex="1" parent="1">
          <mxGeometry x="763.66" y="313" width="479.13" height="192" as="geometry" />
        </mxCell>
        <mxCell id="d6p9PFXJ9PnHoYDoL1wJ-14" value="&lt;div&gt;&lt;br&gt;&lt;/div&gt;" style="rounded=1;whiteSpace=wrap;html=1;strokeColor=#0070F2;fillColor=#EBF8FF;arcSize=24;absoluteArcSize=1;imageWidth=64;imageHeight=64;strokeWidth=1.5;dashed=1;dashPattern=1 2;align=left;" vertex="1" parent="1">
          <mxGeometry x="762.66" y="522" width="480" height="162" as="geometry" />
        </mxCell>
        <mxCell id="d6p9PFXJ9PnHoYDoL1wJ-15" style="edgeStyle=orthogonalEdgeStyle;rounded=0;orthogonalLoop=1;jettySize=auto;html=1;" edge="1" parent="1" source="d6p9PFXJ9PnHoYDoL1wJ-17" target="d6p9PFXJ9PnHoYDoL1wJ-19">
          <mxGeometry relative="1" as="geometry" />
        </mxCell>
        <mxCell id="d6p9PFXJ9PnHoYDoL1wJ-16" style="edgeStyle=orthogonalEdgeStyle;rounded=0;orthogonalLoop=1;jettySize=auto;html=1;exitX=0.446;exitY=0.011;exitDx=0;exitDy=0;exitPerimeter=0;" edge="1" parent="1" source="d6p9PFXJ9PnHoYDoL1wJ-17" target="d6p9PFXJ9PnHoYDoL1wJ-23">
          <mxGeometry relative="1" as="geometry">
            <Array as="points">
              <mxPoint x="856.66" y="604" />
              <mxPoint x="856.66" y="541" />
              <mxPoint x="1008.66" y="541" />
            </Array>
          </mxGeometry>
        </mxCell>
        <mxCell id="d6p9PFXJ9PnHoYDoL1wJ-17" value="&lt;font style=&quot;color: light-dark(rgb(250, 250, 250), rgb(237, 237, 237)); font-size: 17px;&quot;&gt;Delta Tables&lt;/font&gt;" style="rounded=1;whiteSpace=wrap;html=1;strokeColor=#006EAF;fillColor=#66B2FF;arcSize=24;absoluteArcSize=1;imageWidth=64;imageHeight=64;strokeWidth=1.5;fontColor=#ffffff;" vertex="1" parent="1">
          <mxGeometry x="789.66" y="604" width="146.91" height="40" as="geometry" />
        </mxCell>
        <mxCell id="d6p9PFXJ9PnHoYDoL1wJ-18" value="&lt;font face=&quot;arial&quot; style=&quot;font-size: 16px;&quot;&gt;&lt;b style=&quot;font-size: 16px;&quot;&gt;SAP Datasphere&amp;nbsp;&lt;/b&gt;&lt;/font&gt;&lt;div&gt;&lt;font face=&quot;arial&quot; style=&quot;font-size: 16px;&quot;&gt;&lt;b style=&quot;font-size: 16px;&quot;&gt;Object Store&lt;/b&gt;&lt;/font&gt;&lt;/div&gt;" style="text;html=1;align=center;verticalAlign=middle;resizable=0;points=[[0,0.5,0,0,0],[0.5,0,0,0,0],[0.5,1,0,0,0],[1,0.5,0,0,0]];autosize=1;strokeColor=none;fillColor=none;fontSize=12;fontColor=#1D2D3E;fontFamily=Helvetica;" vertex="1" parent="1">
          <mxGeometry x="1091.6599999999999" y="522" width="147" height="50" as="geometry" />
        </mxCell>
        <mxCell id="d6p9PFXJ9PnHoYDoL1wJ-19" value="&lt;font style=&quot;color: light-dark(rgb(250, 250, 250), rgb(237, 237, 237)); font-size: 17px;&quot;&gt;Base Data Product&lt;/font&gt;" style="rounded=1;whiteSpace=wrap;html=1;strokeColor=#006EAF;fillColor=#66B2FF;arcSize=24;absoluteArcSize=1;imageWidth=64;imageHeight=64;strokeWidth=1.5;fontColor=#ffffff;" vertex="1" parent="1">
          <mxGeometry x="1055.75" y="580" width="165.91" height="89" as="geometry" />
        </mxCell>
        <mxCell id="d6p9PFXJ9PnHoYDoL1wJ-20" style="edgeStyle=orthogonalEdgeStyle;rounded=0;orthogonalLoop=1;jettySize=auto;html=1;entryX=0;entryY=0.5;entryDx=0;entryDy=0;" edge="1" parent="1" target="d6p9PFXJ9PnHoYDoL1wJ-17">
          <mxGeometry relative="1" as="geometry">
            <mxPoint x="444.65999999999997" y="623" as="sourcePoint" />
            <mxPoint x="747.66" y="623" as="targetPoint" />
          </mxGeometry>
        </mxCell>
        <mxCell id="d6p9PFXJ9PnHoYDoL1wJ-21" value="&lt;font face=&quot;arial&quot; style=&quot;font-size: 16px;&quot;&gt;&lt;b style=&quot;font-size: 16px;&quot;&gt;SAP Datasphere&amp;nbsp;&lt;/b&gt;&lt;/font&gt;&lt;div&gt;&lt;font face=&quot;arial&quot; style=&quot;font-size: 16px;&quot;&gt;&lt;b style=&quot;font-size: 16px;&quot;&gt;View Layer&lt;/b&gt;&lt;/font&gt;&lt;/div&gt;" style="text;html=1;align=center;verticalAlign=middle;resizable=0;points=[[0,0.5,0,0,0],[0.5,0,0,0,0],[0.5,1,0,0,0],[1,0.5,0,0,0]];autosize=1;strokeColor=none;fillColor=none;fontSize=12;fontColor=#1D2D3E;fontFamily=Helvetica;" vertex="1" parent="1">
          <mxGeometry x="1095.6599999999999" y="316" width="147" height="50" as="geometry" />
        </mxCell>
        <mxCell id="d6p9PFXJ9PnHoYDoL1wJ-22" style="edgeStyle=orthogonalEdgeStyle;rounded=0;orthogonalLoop=1;jettySize=auto;html=1;entryX=0.5;entryY=1;entryDx=0;entryDy=0;" edge="1" parent="1" source="d6p9PFXJ9PnHoYDoL1wJ-23" target="d6p9PFXJ9PnHoYDoL1wJ-24">
          <mxGeometry relative="1" as="geometry" />
        </mxCell>
        <mxCell id="d6p9PFXJ9PnHoYDoL1wJ-23" value="&lt;font style=&quot;color: light-dark(rgb(250, 250, 250), rgb(237, 237, 237)); font-size: 17px;&quot;&gt;Refined Data Product&lt;/font&gt;&lt;div&gt;&lt;font style=&quot;color: light-dark(rgb(250, 250, 250), rgb(237, 237, 237)); font-size: 17px;&quot;&gt;View&amp;nbsp;&lt;/font&gt;&lt;/div&gt;" style="rounded=1;whiteSpace=wrap;html=1;strokeColor=#006EAF;fillColor=#66B2FF;arcSize=24;absoluteArcSize=1;imageWidth=64;imageHeight=64;strokeWidth=1.5;fontColor=#ffffff;" vertex="1" parent="1">
          <mxGeometry x="915.66" y="424" width="185.57" height="54" as="geometry" />
        </mxCell>
        <mxCell id="d6p9PFXJ9PnHoYDoL1wJ-24" value="&lt;font style=&quot;color: light-dark(rgb(250, 250, 250), rgb(237, 237, 237)); font-size: 17px;&quot;&gt;Derived Data Product&lt;/font&gt;&lt;div&gt;&lt;font style=&quot;color: light-dark(rgb(250, 250, 250), rgb(237, 237, 237)); font-size: 17px;&quot;&gt;Analytic Model&lt;/font&gt;&lt;/div&gt;" style="rounded=1;whiteSpace=wrap;html=1;strokeColor=#006EAF;fillColor=#66B2FF;arcSize=24;absoluteArcSize=1;imageWidth=64;imageHeight=64;strokeWidth=1.5;fontColor=#ffffff;" vertex="1" parent="1">
          <mxGeometry x="915.66" y="341" width="185.57" height="57" as="geometry" />
        </mxCell>
        <mxCell id="d6p9PFXJ9PnHoYDoL1wJ-25" value="&lt;div&gt;&lt;font style=&quot;color: light-dark(rgb(250, 250, 250), rgb(237, 237, 237)); font-size: 17px;&quot;&gt;&lt;br&gt;&lt;/font&gt;&lt;/div&gt;&lt;font style=&quot;color: light-dark(rgb(250, 250, 250), rgb(237, 237, 237)); font-size: 17px;&quot;&gt;&lt;div&gt;&lt;font style=&quot;color: light-dark(rgb(250, 250, 250), rgb(237, 237, 237)); font-size: 17px;&quot;&gt;&lt;br&gt;&lt;/font&gt;&lt;/div&gt;&lt;div&gt;&lt;font style=&quot;color: light-dark(rgb(250, 250, 250), rgb(237, 237, 237)); font-size: 17px;&quot;&gt;&lt;br&gt;&lt;/font&gt;&lt;/div&gt;&lt;div&gt;&lt;font style=&quot;color: light-dark(rgb(250, 250, 250), rgb(237, 237, 237)); font-size: 17px;&quot;&gt;&lt;br&gt;&lt;/font&gt;&lt;/div&gt;&lt;div&gt;&lt;font style=&quot;color: light-dark(rgb(250, 250, 250), rgb(237, 237, 237)); font-size: 17px;&quot;&gt;&lt;br&gt;&lt;/font&gt;&lt;/div&gt;&lt;div&gt;&lt;font style=&quot;color: light-dark(rgb(250, 250, 250), rgb(237, 237, 237)); font-size: 17px;&quot;&gt;&lt;br&gt;&lt;/font&gt;&lt;/div&gt;&lt;div&gt;&lt;font style=&quot;color: light-dark(rgb(250, 250, 250), rgb(237, 237, 237)); font-size: 17px;&quot;&gt;&lt;br&gt;&lt;/font&gt;&lt;/div&gt;&lt;div&gt;&lt;font style=&quot;color: light-dark(rgb(250, 250, 250), rgb(237, 237, 237)); font-size: 17px;&quot;&gt;&lt;br&gt;&lt;/font&gt;&lt;/div&gt;&lt;div&gt;&lt;font style=&quot;color: light-dark(rgb(250, 250, 250), rgb(237, 237, 237)); font-size: 17px;&quot;&gt;&lt;br&gt;&lt;/font&gt;&lt;/div&gt;&lt;div&gt;&lt;font style=&quot;color: light-dark(rgb(250, 250, 250), rgb(237, 237, 237)); font-size: 17px;&quot;&gt;&lt;br&gt;&lt;/font&gt;&lt;/div&gt;&lt;div&gt;&lt;font style=&quot;color: light-dark(rgb(250, 250, 250), rgb(237, 237, 237)); font-size: 17px;&quot;&gt;&lt;br&gt;&lt;/font&gt;&lt;/div&gt;&lt;div&gt;&lt;font style=&quot;color: light-dark(rgb(250, 250, 250), rgb(237, 237, 237)); font-size: 17px;&quot;&gt;&lt;br&gt;&lt;/font&gt;&lt;/div&gt;&lt;div&gt;&lt;font style=&quot;color: light-dark(rgb(250, 250, 250), rgb(237, 237, 237)); font-size: 17px;&quot;&gt;&lt;br&gt;&lt;/font&gt;&lt;/div&gt;&lt;div&gt;&lt;font style=&quot;color: light-dark(rgb(250, 250, 250), rgb(237, 237, 237)); font-size: 17px;&quot;&gt;&lt;br&gt;&lt;/font&gt;&lt;/div&gt;&lt;div&gt;&lt;font style=&quot;color: light-dark(rgb(250, 250, 250), rgb(237, 237, 237)); font-size: 17px;&quot;&gt;&lt;br&gt;&lt;/font&gt;&lt;/div&gt;&lt;div&gt;&lt;font style=&quot;color: light-dark(rgb(250, 250, 250), rgb(237, 237, 237)); font-size: 17px;&quot;&gt;&lt;br&gt;&lt;/font&gt;&lt;/div&gt;&lt;div&gt;&lt;font style=&quot;color: light-dark(rgb(250, 250, 250), rgb(237, 237, 237)); font-size: 17px;&quot;&gt;&lt;br&gt;&lt;/font&gt;&lt;/div&gt;&lt;div&gt;&lt;font style=&quot;color: light-dark(rgb(250, 250, 250), rgb(237, 237, 237)); font-size: 17px;&quot;&gt;&lt;br&gt;&lt;/font&gt;&lt;/div&gt;&lt;div&gt;&lt;font style=&quot;color: light-dark(rgb(250, 250, 250), rgb(237, 237, 237)); font-size: 17px;&quot;&gt;&lt;br&gt;&lt;/font&gt;&lt;/div&gt;&lt;div&gt;&lt;font style=&quot;color: light-dark(rgb(250, 250, 250), rgb(237, 237, 237)); font-size: 17px;&quot;&gt;&lt;br&gt;&lt;/font&gt;&lt;/div&gt;&lt;div&gt;&lt;font style=&quot;color: light-dark(rgb(250, 250, 250), rgb(237, 237, 237)); font-size: 17px;&quot;&gt;&lt;br&gt;&lt;/font&gt;&lt;/div&gt;&lt;div&gt;&lt;font style=&quot;color: light-dark(rgb(250, 250, 250), rgb(237, 237, 237)); font-size: 17px;&quot;&gt;&lt;br&gt;&lt;/font&gt;&lt;/div&gt;Partner Connect -&amp;nbsp;&lt;/font&gt;&lt;div&gt;&lt;font style=&quot;color: light-dark(rgb(250, 250, 250), rgb(237, 237, 237)); font-size: 17px;&quot;&gt;SAP Databricks (Green Field)&lt;/font&gt;&lt;/div&gt;&lt;div&gt;&lt;font style=&quot;color: light-dark(rgb(250, 250, 250), rgb(237, 237, 237)); font-size: 17px;&quot;&gt;&lt;br&gt;&lt;/font&gt;&lt;/div&gt;&lt;div&gt;&lt;font style=&quot;color: light-dark(rgb(250, 250, 250), rgb(237, 237, 237)); font-size: 17px;&quot;&gt;&lt;br&gt;&lt;/font&gt;&lt;/div&gt;&lt;div&gt;&lt;font style=&quot;color: light-dark(rgb(250, 250, 250), rgb(237, 237, 237)); font-size: 17px;&quot;&gt;&lt;br&gt;&lt;/font&gt;&lt;/div&gt;&lt;div&gt;&lt;font style=&quot;color: light-dark(rgb(250, 250, 250), rgb(237, 237, 237)); font-size: 17px;&quot;&gt;&lt;br&gt;&lt;/font&gt;&lt;/div&gt;&lt;div&gt;&lt;font style=&quot;color: light-dark(rgb(250, 250, 250), rgb(237, 237, 237)); font-size: 17px;&quot;&gt;&lt;br&gt;&lt;/font&gt;&lt;/div&gt;&lt;div&gt;&lt;font style=&quot;color: light-dark(rgb(250, 250, 250), rgb(237, 237, 237)); font-size: 17px;&quot;&gt;&lt;br&gt;&lt;/font&gt;&lt;/div&gt;&lt;div&gt;&lt;font style=&quot;color: light-dark(rgb(250, 250, 250), rgb(237, 237, 237)); font-size: 17px;&quot;&gt;&lt;br&gt;&lt;/font&gt;&lt;/div&gt;&lt;div&gt;&lt;font style=&quot;color: light-dark(rgb(250, 250, 250), rgb(237, 237, 237)); font-size: 17px;&quot;&gt;&lt;br&gt;&lt;/font&gt;&lt;/div&gt;&lt;div&gt;&lt;font style=&quot;color: light-dark(rgb(250, 250, 250), rgb(237, 237, 237)); font-size: 17px;&quot;&gt;&lt;br&gt;&lt;/font&gt;&lt;/div&gt;&lt;div&gt;&lt;font style=&quot;color: light-dark(rgb(250, 250, 250), rgb(237, 237, 237)); font-size: 17px;&quot;&gt;&lt;br&gt;&lt;/font&gt;&lt;/div&gt;&lt;div&gt;&lt;font style=&quot;color: light-dark(rgb(250, 250, 250), rgb(237, 237, 237)); font-size: 17px;&quot;&gt;&lt;br&gt;&lt;/font&gt;&lt;/div&gt;&lt;div&gt;&lt;font style=&quot;color: light-dark(rgb(250, 250, 250), rgb(237, 237, 237)); font-size: 17px;&quot;&gt;&lt;br&gt;&lt;/font&gt;&lt;/div&gt;&lt;div&gt;&lt;font style=&quot;color: light-dark(rgb(250, 250, 250), rgb(237, 237, 237)); font-size: 17px;&quot;&gt;&lt;br&gt;&lt;/font&gt;&lt;/div&gt;&lt;div&gt;&lt;font style=&quot;color: light-dark(rgb(250, 250, 250), rgb(237, 237, 237)); font-size: 17px;&quot;&gt;&lt;br&gt;&lt;/font&gt;&lt;/div&gt;&lt;div&gt;&lt;font style=&quot;color: light-dark(rgb(250, 250, 250), rgb(237, 237, 237)); font-size: 17px;&quot;&gt;&lt;br&gt;&lt;/font&gt;&lt;/div&gt;&lt;div&gt;&lt;font style=&quot;color: light-dark(rgb(250, 250, 250), rgb(237, 237, 237)); font-size: 17px;&quot;&gt;&lt;br&gt;&lt;/font&gt;&lt;/div&gt;&lt;div&gt;&lt;font style=&quot;color: light-dark(rgb(250, 250, 250), rgb(237, 237, 237)); font-size: 17px;&quot;&gt;&lt;br&gt;&lt;/font&gt;&lt;/div&gt;&lt;div&gt;&lt;font style=&quot;color: light-dark(rgb(250, 250, 250), rgb(237, 237, 237)); font-size: 17px;&quot;&gt;&lt;br&gt;&lt;/font&gt;&lt;/div&gt;&lt;div&gt;&lt;font style=&quot;color: light-dark(rgb(250, 250, 250), rgb(237, 237, 237)); font-size: 17px;&quot;&gt;&lt;br&gt;&lt;/font&gt;&lt;/div&gt;&lt;div&gt;&lt;font style=&quot;color: light-dark(rgb(250, 250, 250), rgb(237, 237, 237)); font-size: 17px;&quot;&gt;&lt;br&gt;&lt;/font&gt;&lt;/div&gt;&lt;div&gt;&lt;font style=&quot;color: light-dark(rgb(250, 250, 250), rgb(237, 237, 237)); font-size: 17px;&quot;&gt;&lt;br&gt;&lt;/font&gt;&lt;/div&gt;&lt;div&gt;&lt;font style=&quot;color: light-dark(rgb(250, 250, 250), rgb(237, 237, 237)); font-size: 17px;&quot;&gt;&lt;br&gt;&lt;/font&gt;&lt;/div&gt;&lt;div&gt;&lt;font style=&quot;color: light-dark(rgb(250, 250, 250), rgb(237, 237, 237)); font-size: 17px;&quot;&gt;&lt;br&gt;&lt;/font&gt;&lt;/div&gt;&lt;div&gt;&lt;div&gt;&lt;font style=&quot;color: light-dark(rgb(250, 250, 250), rgb(237, 237, 237)); font-size: 17px;&quot;&gt;&lt;br&gt;&lt;/font&gt;&lt;/div&gt;&lt;div&gt;&lt;font style=&quot;color: light-dark(rgb(250, 250, 250), rgb(237, 237, 237)); font-size: 17px;&quot;&gt;&lt;br&gt;&lt;/font&gt;&lt;/div&gt;&lt;div&gt;&lt;font style=&quot;color: light-dark(rgb(250, 250, 250), rgb(237, 237, 237)); font-size: 17px;&quot;&gt;&lt;br&gt;&lt;/font&gt;&lt;/div&gt;&lt;div&gt;&lt;font style=&quot;color: light-dark(rgb(250, 250, 250), rgb(237, 237, 237)); font-size: 17px;&quot;&gt;&lt;br&gt;&lt;/font&gt;&lt;/div&gt;&lt;div&gt;&lt;font style=&quot;color: light-dark(rgb(250, 250, 250), rgb(237, 237, 237)); font-size: 17px;&quot;&gt;&lt;br&gt;&lt;/font&gt;&lt;/div&gt;&lt;div&gt;&lt;font style=&quot;color: light-dark(rgb(250, 250, 250), rgb(237, 237, 237)); font-size: 17px;&quot;&gt;&lt;br&gt;&lt;/font&gt;&lt;/div&gt;&lt;div&gt;&lt;font style=&quot;color: light-dark(rgb(250, 250, 250), rgb(237, 237, 237)); font-size: 17px;&quot;&gt;&lt;br&gt;&lt;/font&gt;&lt;/div&gt;&lt;div&gt;&lt;font style=&quot;color: light-dark(rgb(250, 250, 250), rgb(237, 237, 237)); font-size: 17px;&quot;&gt;&lt;br&gt;&lt;/font&gt;&lt;/div&gt;&lt;/div&gt;" style="rounded=1;whiteSpace=wrap;html=1;strokeColor=#0070F2;fillColor=#3399FF;arcSize=24;absoluteArcSize=1;imageWidth=64;imageHeight=64;strokeWidth=1.5;" vertex="1" parent="1">
          <mxGeometry x="1307.6599999999999" y="435" width="261" height="262" as="geometry" />
        </mxCell>
        <mxCell id="d6p9PFXJ9PnHoYDoL1wJ-26" value="&lt;span style=&quot;font-size: 18px;&quot;&gt;Delta Share&lt;/span&gt;" style="rounded=1;whiteSpace=wrap;html=1;strokeColor=#0070F2;fillColor=#EBF8FF;arcSize=24;absoluteArcSize=1;imageWidth=64;imageHeight=64;strokeWidth=1.5;dashed=1;dashPattern=1 2;" vertex="1" parent="1">
          <mxGeometry x="1289.6599999999999" y="512" width="59" height="174" as="geometry" />
        </mxCell>
        <mxCell id="d6p9PFXJ9PnHoYDoL1wJ-27" value="&lt;span style=&quot;font-size: 18px;&quot;&gt;AI/ML&lt;/span&gt;&lt;span style=&quot;color: rgba(0, 0, 0, 0); font-family: monospace; font-size: 0px; text-align: start; text-wrap: nowrap;&quot;&gt;%3CmxGraphModel%3E%3Croot%3E%3CmxCell%20id%3D%220%22%2F%3E%3CmxCell%20id%3D%221%22%20parent%3D%220%22%2F%3E%3CmxCell%20id%3D%222%22%20value%3D%22%26lt%3Bspan%20style%3D%26quot%3Bfont-size%3A%2018px%3B%26quot%3B%26gt%3BDelta%20Share%26lt%3B%2Fspan%26gt%3B%22%20style%3D%22rounded%3D1%3BwhiteSpace%3Dwrap%3Bhtml%3D1%3BstrokeColor%3D%230070F2%3BfillColor%3D%23EBF8FF%3BarcSize%3D24%3BabsoluteArcSize%3D1%3BimageWidth%3D64%3BimageHeight%3D64%3BstrokeWidth%3D1.5%3Bdashed%3D1%3BdashPattern%3D1%202%3B%22%20vertex%3D%221%22%20parent%3D%221%22%3E%3CmxGeometry%20x%3D%22729%22%20y%3D%221160%22%20width%3D%22236%22%20height%3D%2228%22%20as%3D%22geometry%22%2F%3E%3C%2FmxCell%3E%3C%2Froot%3E%3C%2FmxGraphModel%3E&lt;/span&gt;" style="rounded=1;whiteSpace=wrap;html=1;strokeColor=#0070F2;fillColor=#EBF8FF;arcSize=24;absoluteArcSize=1;imageWidth=64;imageHeight=64;strokeWidth=1.5;dashed=1;dashPattern=1 2;" vertex="1" parent="1">
          <mxGeometry x="1354.6599999999999" y="556" width="196" height="28" as="geometry" />
        </mxCell>
        <mxCell id="d6p9PFXJ9PnHoYDoL1wJ-28" value="&lt;span style=&quot;font-size: 18px;&quot;&gt;Bi-directional Sharing&lt;/span&gt;" style="rounded=1;whiteSpace=wrap;html=1;strokeColor=#0070F2;fillColor=#EBF8FF;arcSize=24;absoluteArcSize=1;imageWidth=64;imageHeight=64;strokeWidth=1.5;dashed=1;dashPattern=1 2;" vertex="1" parent="1">
          <mxGeometry x="1356.6599999999999" y="600.5" width="187" height="28" as="geometry" />
        </mxCell>
      </root>
    </mxGraphModel>
  </diagram>
</mxfile>
